<svg viewBox="0 0 214 59" fill="none" xmlns="http://www.w3.org/2000/svg">
<g id="cardnoteCurveIcon">
<g id="card">
<path id="Vector" d="M61.5996 18.4809C61.5572 18.4598 61.5147 18.4492 61.4723 18.4281C61.444 18.4175 61.4016 18.407 61.3733 18.3964C61.3591 18.3964 61.345 18.3858 61.3308 18.3858C61.2601 18.3647 61.1752 18.333 61.0903 18.3119C61.0762 18.3119 61.062 18.3013 61.0337 18.3013C60.963 18.2802 60.8781 18.259 60.8074 18.2485C60.7932 18.2485 60.7932 18.2485 60.7791 18.2379C60.7791 18.2379 60.7791 18.2379 60.7649 18.2379C60.68 18.2273 60.5951 18.2062 60.5244 18.1956C60.5102 18.1956 60.4819 18.1956 60.4678 18.1851C60.3829 18.1745 60.298 18.164 60.199 18.1534C60.1848 18.1534 60.1707 18.1534 60.1565 18.1534C60.0717 18.1428 59.9868 18.1428 59.9019 18.1428C59.8877 18.1428 59.8736 18.1428 59.8594 18.1428C59.7746 18.1428 59.6755 18.1428 59.5906 18.1428C59.5765 18.1428 59.5482 18.1428 59.534 18.1428C59.435 18.1428 59.336 18.1534 59.2511 18.164L4.47071 23.9221C4.37168 23.9327 4.27264 23.9432 4.17361 23.9643C4.14531 23.9643 4.11702 23.9749 4.10287 23.9749C4.01798 23.9855 3.91895 24.0066 3.83406 24.0277C3.81991 24.0277 3.81991 24.0277 3.80576 24.0277C3.70673 24.0489 3.62184 24.07 3.52281 24.1017C3.49451 24.1123 3.48036 24.1123 3.45207 24.1228C3.36718 24.144 3.29644 24.1757 3.21156 24.1968C3.19741 24.1968 3.19741 24.2074 3.18326 24.2074H3.16911C3.14082 24.2179 3.12667 24.2285 3.09837 24.2285C3.05593 24.2496 3.01349 24.2602 2.97104 24.2813C2.94275 24.2919 2.91445 24.3024 2.9003 24.313C2.85786 24.3341 2.82957 24.3447 2.78712 24.3658C2.75883 24.3764 2.73053 24.387 2.70224 24.3975C2.65979 24.4187 2.6315 24.4292 2.58905 24.4504C2.56076 24.4609 2.53246 24.4715 2.51832 24.4926C2.50417 24.5032 2.49002 24.5137 2.46172 24.5137C2.44757 24.5243 2.43343 24.5243 2.43343 24.5349C2.36269 24.5771 2.2778 24.6194 2.20706 24.6617L2.19291 24.6722C2.10803 24.7145 2.03729 24.7673 1.96655 24.8201C1.9524 24.8307 1.9524 24.8307 1.93825 24.8413C1.92411 24.8518 1.90996 24.8624 1.90996 24.8624C1.85336 24.9047 1.79677 24.9364 1.75433 24.9786C1.74018 24.9892 1.72603 24.9998 1.69774 25.0209C1.627 25.0737 1.57041 25.1265 1.49967 25.1794C1.49967 25.1794 1.49967 25.1794 1.48552 25.1899C1.47137 25.2005 1.47138 25.2111 1.45723 25.2111C1.40064 25.2533 1.35819 25.2956 1.3016 25.3484C1.28745 25.3695 1.25916 25.3801 1.24501 25.4012C1.20257 25.4435 1.14598 25.4963 1.10353 25.5386C1.08939 25.5492 1.08938 25.5597 1.07524 25.5703C1.07524 25.5703 1.07523 25.5809 1.06109 25.5809C1.0045 25.6442 0.947907 25.7076 0.891316 25.771C0.877168 25.7816 0.863017 25.8027 0.848869 25.8133C0.806426 25.8661 0.763983 25.9189 0.72154 25.9718C0.707392 25.9823 0.70739 25.9929 0.693243 26.0035C0.693243 26.0035 0.693246 26.014 0.679098 26.014C0.622507 26.088 0.565915 26.1725 0.523471 26.2465C0.509323 26.257 0.509322 26.2782 0.495174 26.2993C0.45273 26.3838 0.396139 26.4683 0.353696 26.5423C0.353696 26.5423 0.353696 26.5423 0.353696 26.5529C0.339548 26.5846 0.325402 26.6057 0.311254 26.6374C0.297106 26.6585 0.282956 26.6902 0.268808 26.7113C0.25466 26.743 0.240514 26.7747 0.226366 26.8064C0.212218 26.8276 0.198069 26.8593 0.198069 26.8804C0.183921 26.9121 0.169776 26.9438 0.169776 26.9755C0.155628 26.9966 0.155626 27.0283 0.141478 27.0494C0.12733 27.0811 0.127333 27.1128 0.113185 27.1445C0.0990374 27.1657 0.0990356 27.1974 0.0848878 27.2185C0.07074 27.2502 0.0707383 27.2819 0.0565904 27.3241C0.0565904 27.3453 0.0424461 27.377 0.0424461 27.3981C0.0424461 27.4298 0.0282974 27.4721 0.0282974 27.5038C0.0282974 27.5249 0.0141487 27.546 0.0141487 27.5777C0.0141487 27.62 0 27.6622 0 27.7045C0 27.7256 0 27.7468 0 27.7679C0 27.8313 0 27.8841 0 27.9475V49.6594C0 50.9272 0.806425 51.9521 2.03729 52.4486L3.77747 53.1565C2.54661 52.6599 1.72604 51.6351 1.74018 50.3673L1.79678 28.6448C1.79678 28.5814 1.79678 28.518 1.79678 28.4652C1.79678 28.4441 1.79678 28.4229 1.79678 28.4018C1.79678 28.3595 1.79678 28.3173 1.81092 28.275C1.81092 28.2539 1.82507 28.2328 1.82507 28.2011C1.82507 28.1694 1.83922 28.1271 1.83922 28.0954C1.83922 28.0743 1.85337 28.0426 1.85337 28.0215C1.86751 27.9898 1.86752 27.9581 1.88166 27.9264C1.88166 27.8947 1.89581 27.8735 1.90996 27.8418C1.9241 27.8102 1.92411 27.7785 1.93825 27.7468C1.9524 27.7151 1.9524 27.6939 1.96655 27.6622C1.98069 27.6305 1.9807 27.5988 1.99484 27.5671C2.00899 27.5354 2.00899 27.5143 2.02314 27.4826C2.03729 27.4509 2.05144 27.4192 2.06558 27.3875C2.07973 27.3558 2.09388 27.3347 2.10802 27.3136C2.12217 27.2819 2.13632 27.2608 2.15047 27.2291C2.19291 27.1445 2.23536 27.06 2.29195 26.9755C2.3061 26.9649 2.30609 26.9438 2.32024 26.9332C2.36269 26.8487 2.41928 26.7747 2.47587 26.7008C2.49002 26.6902 2.50417 26.6691 2.50417 26.6585C2.54661 26.6057 2.58905 26.5529 2.6315 26.5C2.64564 26.4895 2.65979 26.4683 2.67394 26.4578C2.73053 26.3944 2.78712 26.331 2.84371 26.2676C2.85786 26.257 2.87201 26.2465 2.87201 26.2359C2.91445 26.1936 2.9569 26.1408 3.01349 26.0986C3.02764 26.0774 3.05593 26.0669 3.07008 26.0457C3.11252 26.0035 3.16912 25.9612 3.22571 25.9084C3.23985 25.8978 3.254 25.8872 3.26815 25.8767C3.32474 25.8239 3.39548 25.771 3.46622 25.7182C3.48036 25.7076 3.49451 25.6971 3.52281 25.6759C3.5794 25.6337 3.62184 25.602 3.67843 25.5597C3.69258 25.5492 3.72088 25.528 3.73502 25.5175C3.80576 25.4646 3.89065 25.4224 3.96139 25.3695L3.97554 25.359C4.04628 25.3167 4.11702 25.2745 4.20191 25.2322C4.2302 25.2216 4.2585 25.2005 4.28679 25.1899C4.31509 25.1794 4.34338 25.1688 4.35753 25.1477C4.39998 25.1265 4.42827 25.116 4.47071 25.0948C4.49901 25.0843 4.52731 25.0737 4.5556 25.0632C4.59804 25.042 4.62634 25.0315 4.66878 25.0103C4.69708 24.9998 4.72537 24.9892 4.73952 24.9786C4.78196 24.9575 4.82441 24.9469 4.86685 24.9258C4.89515 24.9152 4.90929 24.9047 4.93759 24.9047C4.95174 24.9047 4.96589 24.8941 4.98004 24.8941C5.06492 24.8624 5.13566 24.8413 5.22055 24.8201C5.24884 24.8096 5.26299 24.8096 5.29129 24.799C5.39032 24.7779 5.47521 24.7462 5.57424 24.7251C5.58839 24.7251 5.58839 24.7251 5.60254 24.7251C5.68743 24.7039 5.78646 24.6934 5.87135 24.6722C5.89964 24.6722 5.92794 24.6617 5.94209 24.6617C6.04112 24.6511 6.14016 24.63 6.23919 24.6194L61.0196 18.8718C61.1186 18.8613 61.2176 18.8507 61.3025 18.8507C61.3167 18.8507 61.345 18.8507 61.3591 18.8507C61.4581 18.8507 61.543 18.8401 61.6279 18.8507C61.6421 18.8507 61.6562 18.8507 61.6704 18.8507C61.7553 18.8507 61.8401 18.8507 61.925 18.8613C61.9392 18.8613 61.9533 18.8613 61.9675 18.8613C62.0524 18.8718 62.1372 18.8718 62.2363 18.893C62.2504 18.893 62.2787 18.893 62.2929 18.9035C62.3778 18.9141 62.4626 18.9247 62.5475 18.9458C62.5617 18.9458 62.5617 18.9458 62.5758 18.9458C62.6607 18.9564 62.7315 18.9775 62.8022 18.9986C62.8163 18.9986 62.8305 19.0092 62.8588 19.0092C62.9437 19.0303 63.0144 19.0514 63.0993 19.0831C63.1134 19.0831 63.1276 19.0937 63.1417 19.0937C63.2266 19.1254 63.2974 19.1465 63.3681 19.1782L61.5996 18.4809Z" fill="#A67427"/>
</g>
<g id="text">
<g id="Group">
<path id="Vector_2" d="M60.9913 18.8824C63.4247 18.6288 65.3913 20.0129 65.3913 21.9675L65.3347 43.6899C65.3347 45.6551 63.354 47.4512 60.9206 47.7048L6.14019 53.4629C3.70676 53.7165 1.74022 52.3324 1.74022 50.3778L1.79681 28.6554C1.79681 26.6902 3.7775 24.8941 6.21093 24.6405L60.9913 18.8824ZM61.3026 44.2182L61.3167 40.9746C61.3167 40.5203 60.864 40.2139 60.3122 40.2667L6.16849 45.9509C5.61672 46.0143 5.16399 46.4158 5.16399 46.8701L5.14984 50.1137C5.14984 50.5574 5.60257 50.8744 6.15434 50.8215L60.2981 45.1374C60.8498 45.074 61.3026 44.6725 61.3026 44.2182ZM5.16399 40.5731L5.14984 43.6159C5.14984 44.1231 5.65916 44.4717 6.28167 44.4084L48.5978 39.9709C49.2203 39.9075 49.7297 39.4426 49.7297 38.9355L49.7438 35.8927C49.7438 35.3855 49.2345 35.0369 48.612 35.1002L6.29582 39.5377C5.67331 39.6117 5.16399 40.066 5.16399 40.5731ZM5.17814 33.9803L5.16399 37.4352C5.16399 37.8261 5.56013 38.1008 6.04116 38.0586L32.3561 35.301C32.8371 35.2482 33.2333 34.8889 33.2333 34.498L33.2474 31.0431C33.2474 30.6522 32.8513 30.3775 32.3703 30.4303L6.05531 33.1879C5.57428 33.2196 5.17814 33.5788 5.17814 33.9803ZM5.19229 27.789L5.17814 30.8318C5.17814 31.339 5.68746 31.6876 6.30997 31.6242L19.4109 30.2507C20.0334 30.1873 20.5427 29.7225 20.5427 29.2153L20.5568 26.1725C20.5568 25.6654 20.0475 25.3167 19.425 25.3801L6.32411 26.7536C5.71576 26.817 5.20644 27.2819 5.19229 27.789Z" fill="#DB9A33"/>
</g>
<g id="Group_2">
<path id="Vector_3" d="M60.3122 40.2667C60.864 40.2033 61.3167 40.5203 61.3167 40.9746L61.3025 44.2182C61.3025 44.6619 60.8498 45.074 60.298 45.1374L6.15432 50.8216C5.60256 50.8849 5.14983 50.568 5.14983 50.1137L5.16397 46.8701C5.16397 46.4158 5.61671 46.0143 6.16847 45.9509L60.3122 40.2667Z" fill="#DFDFDF"/>
</g>
<g id="Group_3">
<path id="Vector_4" d="M48.612 35.1003C49.2345 35.0369 49.7438 35.3856 49.7438 35.8927L49.7296 38.9356C49.7296 39.4427 49.2203 39.897 48.5978 39.971L6.28165 44.4084C5.65915 44.4718 5.14983 44.1232 5.14983 43.616L5.16397 40.5732C5.16397 40.0661 5.6733 39.6012 6.2958 39.5378L48.612 35.1003Z" fill="#DFDFDF"/>
</g>
<g id="Group_4">
<path id="Vector_5" d="M32.3844 30.4092C32.8654 30.3564 33.2615 30.6311 33.2615 31.022L33.2474 34.4769C33.2474 34.8678 32.8513 35.227 32.3702 35.2799L6.05528 38.0374C5.57426 38.0902 5.17812 37.8155 5.17812 37.4141L5.19226 33.9592C5.19226 33.5683 5.5884 33.209 6.06943 33.1562L32.3844 30.4092Z" fill="#DFDFDF"/>
</g>
<g id="Group_5">
<path id="Vector_6" d="M19.425 25.3801C20.0475 25.3167 20.5568 25.6654 20.5568 26.1725L20.5427 29.2153C20.5427 29.7225 20.0333 30.1874 19.4108 30.2508L6.30994 31.6243C5.68744 31.6876 5.17812 31.339 5.17812 30.8318L5.19226 27.789C5.19226 27.2819 5.70159 26.817 6.32409 26.7536L19.425 25.3801Z" fill="#DFDFDF"/>
</g>
<path id="Vector_7" d="M70.8241 49.1311C102.671 45.0634 136.173 37.1182 142.836 20.1819C146.798 10.1342 140.035 0.17109 140.856 0.00204399C142.454 -0.314918 168.373 36.3153 151.75 51.5611C139.625 62.6759 106.533 60.9009 70.8241 49.1311Z" fill="#8CC63F"/>
<g id="Group_6">
<path id="Vector_8" d="M78.2092 22.3795L84.6889 31.6982C85.2972 32.5645 85.7358 32.9977 86.0046 32.9977C86.4573 32.9977 86.6837 32.2053 86.6837 30.6205C86.6837 28.8244 86.613 27.5988 86.4856 26.9437C86.3583 26.2887 86.0895 25.7921 85.6651 25.4646C85.3255 25.1899 85.085 24.9046 84.9577 24.5982C84.8162 24.2918 84.7455 23.9009 84.7455 23.4149C84.7455 22.221 85.2406 21.4497 86.2451 21.1011C86.6554 20.9532 87.3628 20.8898 88.3814 20.8898C89.6972 20.8898 90.6026 21.0166 91.0978 21.2701C91.8901 21.6716 92.3004 22.4218 92.3004 23.5311C92.3004 24.4609 91.975 25.1582 91.3242 25.6231C91.0695 25.8132 90.8856 25.9717 90.7866 26.1091C90.6875 26.257 90.6026 26.4683 90.5319 26.7536C90.2914 27.6939 90.1782 29.4794 90.1641 32.0996V39.0728C90.1641 40.1399 90.1641 41.5979 90.1782 43.4574C90.1924 45.9614 90.0933 47.7787 89.9094 48.888C89.6689 50.2721 89.2445 50.9589 88.6361 50.9589C88.3673 50.9589 88.1409 50.8638 87.9429 50.6842C87.7448 50.5045 87.4194 50.0714 86.9808 49.4057L79.2702 38.0585C78.7326 37.2661 78.2799 36.8646 77.9262 36.8646C77.4027 36.8646 77.1339 38.0691 77.1339 40.478C77.1339 42.4643 77.2047 43.8167 77.332 44.5351C77.4593 45.2535 77.7423 45.7924 78.1526 46.141C78.7326 46.6165 79.0297 47.2293 79.0297 47.9794C79.0297 49.9657 77.7281 50.9483 75.1391 50.9483C73.9648 50.9483 73.0593 50.6947 72.4085 50.1876C71.7577 49.6804 71.4465 48.962 71.4465 48.0428C71.4465 47.5568 71.5031 47.1976 71.6304 46.9546C71.7577 46.7116 72.0266 46.384 72.451 45.972C72.8613 45.5705 73.1018 44.8626 73.1867 43.8589C73.3282 42.0205 73.413 39.3792 73.413 35.9243C73.413 32.2476 73.2857 29.564 73.0169 27.8841C72.9179 27.2713 72.8047 26.817 72.6491 26.5106C72.5076 26.2147 72.2529 25.9295 71.9134 25.6548C71.5172 25.3378 71.2484 25.0314 71.1069 24.7356C70.9513 24.4397 70.8806 24.0699 70.8806 23.6473C70.8806 22.2738 71.588 21.418 73.031 21.0588C73.5121 20.9426 74.3609 20.8898 75.5777 20.8898C76.2709 20.8898 76.7802 20.9743 77.0915 21.1539C77.4027 21.3546 77.7847 21.7561 78.2092 22.3795Z" fill="#333333"/>
<path id="Vector_9" d="M102.869 20.7631C105.104 20.7631 107.042 21.809 108.712 23.901C109.844 25.3379 110.749 27.2079 111.457 29.5006C112.136 31.7828 112.489 34.0649 112.489 36.3364C112.489 39.6962 111.81 42.7074 110.466 45.3593C109.32 47.6097 107.821 49.2262 105.981 50.2088C104.85 50.811 103.704 51.1069 102.558 51.1069C101.058 51.1069 99.629 50.5891 98.2566 49.5643C96.6013 48.3282 95.2997 46.4475 94.366 43.9435C93.4605 41.524 92.9937 38.851 92.9937 35.9244C92.9937 32.5329 93.5737 29.5429 94.748 26.9438C95.7808 24.63 97.1956 22.9395 98.9499 21.8619C100.124 21.1328 101.426 20.7631 102.869 20.7631ZM101.638 26.891C100.902 26.891 100.336 27.4298 99.9119 28.4969C99.5865 29.2999 99.4168 30.2402 99.4168 31.339C99.4168 32.9449 99.6148 34.815 100.011 36.9281C100.407 39.0412 100.916 40.9218 101.525 42.5595C101.794 43.2568 102.119 43.8167 102.515 44.2288C102.911 44.6408 103.307 44.8521 103.718 44.8521C104.383 44.8521 104.906 44.4507 105.316 43.6371C105.727 42.8236 105.925 41.7565 105.925 40.4358C105.925 38.7137 105.755 36.8541 105.415 34.8573C105.076 32.8604 104.637 31.1594 104.1 29.7542C103.774 28.8878 103.392 28.2011 102.954 27.7045C102.515 27.1868 102.077 26.9227 101.638 26.891Z" fill="#333333"/>
<path id="Vector_10" d="M118.969 21.3546H125.817C126.552 21.3124 127.231 21.1433 127.826 20.8686C128.08 20.7524 128.321 20.6996 128.519 20.6996C129.226 20.6996 129.905 21.5554 130.57 23.267C131.235 24.9786 131.561 26.7324 131.561 28.5497C131.561 29.7858 131.334 30.6944 130.867 31.265C130.528 31.6876 130.103 31.9095 129.622 31.9095C129.156 31.9095 128.759 31.6982 128.42 31.2755C128.08 30.8529 127.741 30.1662 127.415 29.1942C127.132 28.3067 126.906 27.7361 126.736 27.4614C126.566 27.1867 126.368 27.0599 126.142 27.0599C125.817 27.0599 125.59 27.2818 125.449 27.7256C125.307 28.1693 125.237 28.8983 125.237 29.902V41.8726C125.237 43.0982 125.321 43.9857 125.477 44.5457C125.633 45.1056 125.93 45.5282 126.368 45.8241C126.835 46.1516 127.161 46.458 127.33 46.7538C127.5 47.0497 127.585 47.4511 127.585 47.9583C127.585 48.9831 127.161 49.7438 126.312 50.251C125.463 50.7475 124.161 51.0011 122.421 51.0011C120.271 51.0011 118.672 50.7053 117.639 50.1242C116.762 49.6382 116.323 48.8563 116.323 47.7681C116.323 47.187 116.479 46.7327 116.79 46.3946C116.875 46.3206 117.172 46.1516 117.71 45.8769C118.035 45.7184 118.262 45.4226 118.389 44.9788C118.516 44.5351 118.615 43.6899 118.7 42.4326C118.771 41.3232 118.828 39.5271 118.898 37.0337C118.969 34.5402 118.983 32.3955 118.983 30.5677C118.983 29.2892 118.927 28.3701 118.799 27.8312C118.672 27.2924 118.474 27.0177 118.205 27.0177C117.866 27.0177 117.54 27.4192 117.215 28.2116C116.635 29.6696 116.154 30.631 115.786 31.0959C115.347 31.6559 114.909 31.9306 114.498 31.9306C114.031 31.9306 113.65 31.6453 113.338 31.0642C113.027 30.4831 112.886 29.7541 112.886 28.8561C112.886 27.9686 113.013 26.9966 113.253 25.94C113.494 24.8835 113.819 23.9009 114.23 23.0028C114.895 21.5448 115.545 20.8264 116.182 20.8264C116.352 20.8264 116.55 20.8686 116.776 20.9532C117.243 21.1116 117.625 21.2173 117.922 21.2701C118.248 21.3335 118.587 21.3546 118.969 21.3546Z" fill="#333333"/>
<path id="Vector_11" d="M134.772 21.3547H141.45C142.808 21.3547 143.784 21.3124 144.407 21.2173C145.029 21.1222 145.638 20.9321 146.218 20.6468C146.402 20.5623 146.543 20.52 146.642 20.52C147.095 20.52 147.491 20.9215 147.845 21.7139C148.411 23.0134 148.708 24.5771 148.708 26.4155C148.708 27.3453 148.595 28.0743 148.354 28.6025C148.114 29.1414 147.788 29.4055 147.378 29.4055C147.095 29.4055 146.869 29.3104 146.713 29.1202C146.557 28.9301 146.331 28.4969 146.062 27.8313C145.68 26.8804 145.199 26.2359 144.605 25.9189C144.011 25.602 143.063 25.4435 141.719 25.4435C140.714 25.4435 140.12 25.7393 139.894 26.3204C139.781 26.6374 139.71 27.06 139.696 27.5777C139.667 28.106 139.667 29.4478 139.667 31.6137C139.667 32.4695 139.752 32.9977 139.922 33.209C140.092 33.4204 140.545 33.5154 141.294 33.5154C141.662 33.5154 141.917 33.3887 142.087 33.1457C142.256 32.8921 142.355 32.4483 142.398 31.8144C142.455 30.9903 142.525 30.4198 142.582 30.1134C142.638 29.807 142.766 29.5429 142.936 29.3104C143.119 29.0569 143.332 28.9301 143.572 28.9301C143.926 28.9301 144.237 29.2048 144.478 29.7647C144.662 30.1768 144.817 30.9058 144.945 31.9518C145.072 32.9977 145.128 34.0965 145.128 35.2376C145.128 37.488 144.916 39.337 144.492 40.7739C144.251 41.5557 143.898 41.9466 143.431 41.9466C143.134 41.9466 142.936 41.8198 142.822 41.5768C142.709 41.3233 142.624 40.8056 142.568 40.0237C142.44 38.4178 141.86 37.6043 140.856 37.6043C140.46 37.6043 140.205 37.805 140.049 38.217C139.894 38.6291 139.837 39.3792 139.837 40.4675C139.837 41.1331 139.865 41.9994 139.922 43.0666C139.979 44.1231 140.035 44.831 140.092 45.1691C140.163 45.5917 140.375 45.8875 140.743 46.0566C141.096 46.215 141.705 46.2996 142.539 46.2996C143.841 46.2996 144.817 46.0249 145.482 45.4755C146.147 44.9261 146.685 43.9329 147.095 42.496C147.335 41.6719 147.562 41.112 147.746 40.8267C147.93 40.5414 148.199 40.4041 148.51 40.4041C148.878 40.4041 149.175 40.6682 149.415 41.1859C149.656 41.7036 149.769 42.3587 149.769 43.1405C149.769 43.9963 149.642 45.0634 149.373 46.3418C149.104 47.6202 148.779 48.7613 148.382 49.765C148.184 50.251 148.015 50.5785 147.887 50.737C147.76 50.8955 147.59 50.98 147.392 50.98C147.222 50.98 146.996 50.9378 146.671 50.8532C146.119 50.6842 145.369 50.5785 144.449 50.5363H133.428C132.99 50.5363 132.636 50.3778 132.395 50.0608C132.155 49.7439 132.028 49.2896 132.028 48.7085C132.028 48.2964 132.084 48.0006 132.183 47.8104C132.282 47.6202 132.523 47.3878 132.905 47.1025C133.159 46.9124 133.357 46.6905 133.485 46.4158C133.612 46.1411 133.711 45.7502 133.782 45.2219C134.065 43.0666 134.206 40.1716 134.206 36.5266C134.206 31.022 133.994 27.5566 133.584 26.1197C133.499 25.8344 133.4 25.6337 133.301 25.5174C133.202 25.4012 132.975 25.2639 132.65 25.116C132.155 24.873 131.914 24.3341 131.914 23.4889C131.914 23.0346 131.999 22.6225 132.169 22.2739C132.339 21.9146 132.551 21.6822 132.82 21.566C133.145 21.4181 133.81 21.3547 134.772 21.3547Z" fill="#333333"/>
</g>
</g>
</g>
</svg>
