 <svg width="1440" height="821" viewBox="0 0 1440 821" fill="none" xmlns="http://www.w3.org/2000/svg">
<g id="whole-svg-image">
<g id="town" clip-path="url(#clip0)">
<rect id="Rectangle 3" y="820" width="1440" height="38" fill="#4F4A4A"/>
<g id="main-road-block">
<rect id="main-road" y="455" width="1439" height="229" fill="#3F3737"/>
<path id="stripe-1" d="M386.76 574.465H131.746V583.249H386.76V574.465Z" fill="#E5E5E5"/>
<path id="stripe-2" d="M964.063 574.465H709.048V583.249H964.063V574.465Z" fill="#E5E5E5"/>
<path id="stripe-3" d="M1356.75 574.465H1101.74V583.249H1356.75V574.465Z" fill="#E5E5E5"/>
</g>
<rect id="sky" width="1439" height="456" fill="white"/>
<path id="sun" d="M153.809 134.859C178.556 134.859 198.617 116.086 198.617 92.9293C198.617 69.7724 178.556 51 153.809 51C129.062 51 109 69.7724 109 92.9293C109 116.086 129.062 134.859 153.809 134.859Z" fill="#B5D94F"/>

<rect id="walking" y="685" width="1439" height="136" fill="#A0A0A0"/>
<path id="Vector" d="M1358.25 441.415C1355.9 442.549 1353.72 443.96 1351.76 445.612C1349.76 443.952 1347.55 442.541 1345.16 441.415C1342.82 442.549 1340.64 443.96 1338.67 445.612C1336.68 443.952 1334.46 442.541 1332.08 441.415C1332.08 441.415 1321.91 446.096 1321.93 451.816C1321.93 451.959 1321.94 452.101 1321.95 452.243C1322.3 455.988 1332.82 456.943 1338.6 455.177C1342.87 456.319 1347.4 456.319 1351.68 455.177C1357.43 456.971 1368.16 455.943 1368.48 452.155C1368.49 452.014 1368.5 451.871 1368.49 451.728C1368.47 446.008 1358.25 441.415 1358.25 441.415Z" fill="#F2F2F2"/>
<path id="Vector_2" d="M10.9077 244.641L1.88367 237.887L52.4125 195.671H180.539V232.821L97.5282 285.168L10.9077 244.641Z" fill="#3F3D56"/>
<path id="Vector_3" d="M203.901 219.351V196.515H186.89V202.107L180.539 195.671L139.035 237.887L122.793 248.019L97.6096 420.183L135.588 455.721H223.851V239.576L203.901 219.351Z" fill="#CCCCCC"/>
<path id="Vector_4" d="M139.034 237.887H1.88409V455.722H139.034V237.887Z" fill="#F2F2F2"/>
<path id="Vector_5" d="M80.3845 402.53H55.12V455.722H80.3845V402.53Z" fill="#CCCCCC"/>
<path id="building-window" d="M28.0516 417.727V409.284H17.2236V417.727H27.1489H28.0516Z" fill="#3F3D56"/>
<path id="building-window_2" d="M27.1489 424.481H17.2236V432.926H28.0516V424.481H27.1489Z" fill="#3F3D56"/>
<path id="building-window_3" d="M46.0969 409.284H35.2693V417.727H46.0969V409.284Z" fill="#3F3D56"/>
<path id="building-window_4" d="M46.0969 424.482H35.2693V432.925H46.0969V424.482Z" fill="#3F3D56"/>
<path id="building-window_5" d="M102.04 417.727V409.284H91.2123V417.727H101.138H102.04Z" fill="#3F3D56"/>
<path id="building-window_6" d="M101.138 424.481H91.2123V432.926H102.04V424.481H101.138Z" fill="#3F3D56"/>
<path id="building-window_7" d="M120.086 409.284H109.258V417.727H120.086V409.284Z" fill="#3F3D56"/>
<path id="building-window_8" d="M120.086 424.482H109.258V432.925H120.086V424.482Z" fill="#3F3D56"/>
<path id="building-window_9" d="M121.89 248.863H17.2233V269.127H121.89V248.863Z" fill="#3F3D56"/>
<path id="building-window_10" d="M121.89 289.391H17.2233V309.654H121.89V289.391Z" fill="#3F3D56"/>
<path id="building-window_11" d="M121.89 329.918H17.2233V350.182H121.89V329.918Z" fill="#3F3D56"/>
<path id="building-window_12" d="M121.89 370.445H17.2233V390.709H121.89V370.445Z" fill="#3F3D56"/>
<path id="Vector_6" d="M169.244 244.641L160.219 237.887L210.748 195.671H338.875V232.821L255.864 285.168L169.244 244.641Z" fill="#3F3D56"/>
<path id="Vector_7" d="M362.236 219.351V196.515H345.226V202.107L338.875 195.671L297.37 237.887L281.129 248.019L255.945 420.183L293.924 455.721H382.187V239.576L362.236 219.351Z" fill="#CCCCCC"/>
<path id="Vector_8" d="M297.37 237.887H160.22V455.722H297.37V237.887Z" fill="#F2F2F2"/>
<path id="Vector_9" d="M238.72 402.53H213.456V455.722H238.72V402.53Z" fill="#CCCCCC"/>
<path id="building-windows" d="M186.387 417.727V409.284H175.56V417.727H185.485H186.387Z" fill="#3F3D56"/>
<path id="building-windows_2" d="M185.485 424.481H175.56V432.926H186.387V424.481H185.485Z" fill="#3F3D56"/>
<path id="building-windows_3" d="M204.433 409.284H193.605V417.727H204.433V409.284Z" fill="#3F3D56"/>
<path id="building-window_13" d="M204.433 424.482H193.605V432.925H204.433V424.482Z" fill="#3F3D56"/>
<path id="building-window_14" d="M260.376 417.727V409.284H249.548V417.727H259.473H260.376Z" fill="#3F3D56"/>
<path id="building-window_15" d="M259.473 424.481H249.548V432.926H260.376V424.481H259.473Z" fill="#3F3D56"/>
<path id="building-window_16" d="M278.422 409.284H267.594V417.727H278.422V409.284Z" fill="#3F3D56"/>
<path id="building-window_17" d="M278.422 424.482H267.594V432.925H278.422V424.482Z" fill="#3F3D56"/>
<path id="building-window_18" d="M336.169 248.863V240.419H325.341V248.863H335.267H336.169Z" fill="#3F3D56"/>
<path id="building-window_19" d="M335.267 255.618H325.341V264.061H336.169V255.618H335.267Z" fill="#3F3D56"/>
<path id="building-window_20" d="M354.215 240.42H343.387V248.863H354.215V240.42Z" fill="#3F3D56"/>
<path id="building-window_21" d="M354.215 255.618H343.387V264.061H354.215V255.618Z" fill="#3F3D56"/>
<path id="building-window_22" d="M336.169 296.145V287.703H325.341V296.145H335.267H336.169Z" fill="#3F3D56"/>
<path id="building-window_23" d="M335.267 302.9H325.341V311.343H336.169V302.9H335.267Z" fill="#3F3D56"/>
<path id="building-window_24" d="M354.215 287.702H343.387V296.145H354.215V287.702Z" fill="#3F3D56"/>
<path id="building-window_25" d="M354.215 302.9H343.387V311.343H354.215V302.9Z" fill="#3F3D56"/>
<path id="building-window_26" d="M336.169 343.427V334.984H325.341V343.427H335.267H336.169Z" fill="#3F3D56"/>
<path id="building-window_27" d="M335.267 350.182H325.341V358.625H336.169V350.182H335.267Z" fill="#3F3D56"/>
<path id="building-window_28" d="M354.215 334.984H343.387V343.427H354.215V334.984Z" fill="#3F3D56"/>
<path id="building-window_29" d="M354.215 350.182H343.387V358.625H354.215V350.182Z" fill="#3F3D56"/>
<path id="building-window_30" d="M336.169 390.709V382.266H325.341V390.709H335.267H336.169Z" fill="#3F3D56"/>
<path id="building-window_31" d="M335.267 397.464H325.341V405.907H336.169V397.464H335.267Z" fill="#3F3D56"/>
<path id="building-window_32" d="M354.215 382.266H343.387V390.709H354.215V382.266Z" fill="#3F3D56"/>
<path id="building-window_33" d="M354.215 397.464H343.387V405.907H354.215V397.464Z" fill="#3F3D56"/>
<path id="building-window_34" d="M280.226 248.863H175.559V269.127H280.226V248.863Z" fill="#3F3D56"/>
<path id="building-window_35" d="M280.226 289.391H175.559V309.654H280.226V289.391Z" fill="#3F3D56"/>
<path id="building-window_36" d="M280.226 329.918H175.559V350.182H280.226V329.918Z" fill="#3F3D56"/>
<path id="building-window_37" d="M280.226 370.445H175.559V390.709H280.226V370.445Z" fill="#3F3D56"/>
<g id="left-tree">
<path id="left-tree-log" d="M477.651 293.452H473.281V454.955H477.651V293.452Z" fill="#3F3D56"/>
<path id="left-tree-leaf" d="M520.291 340.454C520.3 342.231 520.282 343.999 520.239 345.759C518.672 409.335 437.217 409.686 435.023 346.126C434.963 344.367 434.928 342.599 434.919 340.822C434.569 269.757 476.971 211.963 476.971 211.963C476.971 211.963 519.941 269.389 520.291 340.454Z" fill="#B58D8D"/>
</g>
<path id="Vector_10" d="M462.454 442.281C460.109 443.416 457.928 444.826 455.965 446.478C453.969 444.818 451.752 443.407 449.369 442.281C447.023 443.416 444.842 444.826 442.879 446.478C440.884 444.818 438.666 443.407 436.283 442.281C436.283 442.281 426.111 446.962 426.139 452.683C426.14 452.826 426.147 452.968 426.16 453.109C426.507 456.855 437.024 457.809 442.801 456.044C447.078 457.185 451.61 457.185 455.887 456.044C461.639 457.837 472.37 456.81 472.683 453.022C472.695 452.88 472.7 452.738 472.7 452.595C472.672 446.874 462.454 442.281 462.454 442.281Z" fill="#CCCCCC"/>
<path id="Vector_11" d="M584.717 386.487L579.304 378.044L629.833 300.783H759.763V312.603L712.844 396.619L658.706 406.751L584.717 386.487Z" fill="#3F3D56"/>
<path id="Vector_12" d="M782.13 361.299V298.145H765.119V306.477L759.763 300.783L716.453 378.044L709.234 384.799L700.212 418.571L716.453 455.721H799.464V379.732L782.13 361.299Z" fill="#CCCCCC"/>
<path id="Vector_13" d="M716.453 378.044H579.303V455.722H716.453V378.044Z" fill="#F2F2F2"/>
<path id="building-window_38" d="M697.505 402.53H668.631V426.171H697.505V402.53Z" fill="#3F3D56"/>
<path id="Vector_14" d="M656.901 401.685H631.637V455.722H656.901V401.685Z" fill="#CCCCCC"/>
<path id="building-window_39" d="M602.764 410.129V401.686H591.936V410.129H601.861H602.764Z" fill="#3F3D56"/>
<path id="building-window_40" d="M601.861 416.883H591.936V425.326H602.764V416.883H601.861Z" fill="#3F3D56"/>
<path id="building-window_41" d="M620.809 401.685H609.981V410.128H620.809V401.685Z" fill="#3F3D56"/>
<path id="building-window_42" d="M620.809 416.883H609.981V425.326H620.809V416.883Z" fill="#3F3D56"/>
<path id="Vector_15" d="M641.504 332.538L640.079 330.317L653.374 309.989H687.56V313.098L675.216 335.204L660.971 337.87L641.504 332.538Z" fill="#3F3D56"/>
<path id="Vector_16" d="M687.56 309.989L676.166 330.317L674.266 332.095L671.891 340.981L676.166 350.754H698.006V330.761L687.56 309.989Z" fill="#CCCCCC"/>
<path id="Vector_17" d="M676.165 330.317H640.079V350.755H676.165V330.317Z" fill="#F2F2F2"/>
<path id="building-window_43" d="M655.367 339.125V335.093H650.198V339.125H654.937H655.367Z" fill="#3F3D56"/>
<path id="building-window_44" d="M654.937 342.35H650.198V346.38H655.367V342.35H654.937Z" fill="#3F3D56"/>
<path id="building-window_45" d="M663.984 335.093H658.814V339.124H663.984V335.093Z" fill="#3F3D56"/>
<path id="building-window_46" d="M663.984 342.349H658.814V346.38H663.984V342.349Z" fill="#3F3D56"/>
<path id="Vector_18" d="M748.288 386.487L742.873 378.044L793.402 300.783H923.334V312.603L876.414 396.619L822.276 406.751L748.288 386.487Z" fill="#3F3D56"/>
<path id="Vector_19" d="M945.7 361.299V298.145H928.689V306.477L923.334 300.783L880.024 378.044L872.805 384.799L863.781 418.571L880.024 455.721H963.035V379.732L945.7 361.299Z" fill="#CCCCCC"/>
<path id="Vector_20" d="M880.023 378.044H742.873V455.722H880.023V378.044Z" fill="#F2F2F2"/>
<path id="building-window_47" d="M861.075 402.53H832.201V426.171H861.075V402.53Z" fill="#3F3D56"/>
<path id="Vector_21" d="M820.471 401.685H795.207V455.722H820.471V401.685Z" fill="#CCCCCC"/>
<path id="building-window_48" d="M766.333 410.129V401.684H755.505V410.129H765.431H766.333Z" fill="#3F3D56"/>
<path id="building-window_49" d="M765.431 416.883H755.505V425.326H766.333V416.883H765.431Z" fill="#3F3D56"/>
<path id="building-window_50" d="M784.379 401.685H773.552V410.128H784.379V401.685Z" fill="#3F3D56"/>
<path id="building-window_51" d="M784.379 416.883H773.552V425.326H784.379V416.883Z" fill="#3F3D56"/>
<path id="Vector_22" d="M918.822 410.973V402.529H907.994V410.973H917.919H918.822Z" fill="#3F3D56"/>
<path id="Vector_23" d="M917.919 417.727H907.994V426.171H918.822V417.727H917.919Z" fill="#3F3D56"/>
<path id="Vector_24" d="M936.868 402.53H926.041V410.973H936.868V402.53Z" fill="#3F3D56"/>
<path id="Vector_25" d="M936.868 417.727H926.041V426.171H936.868V417.727Z" fill="#3F3D56"/>
<path id="Vector_26" d="M906.623 386.487L901.209 378.044L951.738 300.783H1081.67V312.603L1034.75 396.619L980.612 406.751L906.623 386.487Z" fill="#3F3D56"/>
<path id="Vector_27" d="M1104.04 361.299V298.145H1087.03V306.477L1081.67 300.783L1038.36 378.044L1031.14 384.799L1022.12 418.571L1038.36 455.721H1121.37V379.732L1104.04 361.299Z" fill="#CCCCCC"/>
<path id="Vector_28" d="M1038.36 378.044H901.209V455.722H1038.36V378.044Z" fill="#F2F2F2"/>
<path id="building-window_52" d="M1019.41 402.53H990.537V426.171H1019.41V402.53Z" fill="#3F3D56"/>
<path id="Vector_29" d="M978.807 401.685H953.543V455.722H978.807V401.685Z" fill="#CCCCCC"/>
<path id="building-window_53" d="M924.669 410.129V401.684H913.842V410.129H923.767H924.669Z" fill="#3F3D56"/>
<path id="building-window_54" d="M923.767 416.883H913.842V425.326H924.669V416.883H923.767Z" fill="#3F3D56"/>
<path id="building-window_55" d="M942.715 401.685H931.887V410.128H942.715V401.685Z" fill="#3F3D56"/>
<path id="building-window_56" d="M942.715 416.883H931.887V425.326H942.715V416.883Z" fill="#3F3D56"/>
<path id="Vector_30" d="M801.148 333.764L799.724 331.541L813.018 311.212H847.205V314.323L834.86 336.429L820.615 339.094L801.148 333.764Z" fill="#3F3D56"/>
<path id="Vector_31" d="M847.205 311.212L835.809 331.541L833.91 333.318L831.537 342.205L835.809 351.98H857.651V331.986L847.205 311.212Z" fill="#CCCCCC"/>
<path id="Vector_32" d="M835.809 331.541H799.723V351.979H835.809V331.541Z" fill="#F2F2F2"/>
<path id="building-window_57" d="M815.012 340.348V336.317H809.842V340.348H814.581H815.012Z" fill="#3F3D56"/>
<path id="building-window_58" d="M814.581 343.574H809.842V347.605H815.012V343.574H814.581Z" fill="#3F3D56"/>
<path id="building-window_59" d="M823.628 336.317H818.458V340.348H823.628V336.317Z" fill="#3F3D56"/>
<path id="building-window_60" d="M823.628 343.574H818.458V347.605H823.628V343.574Z" fill="#3F3D56"/>
<path id="Vector_33" d="M960.793 332.538L959.368 330.317L972.663 309.989H1006.85V313.098L994.503 335.204L980.26 337.87L960.793 332.538Z" fill="#3F3D56"/>
<path id="Vector_34" d="M1006.85 309.989L995.453 330.317L993.554 332.095L991.18 340.981L995.453 350.754H1017.3V330.761L1006.85 309.989Z" fill="#CCCCCC"/>
<path id="Vector_35" d="M995.454 330.317H959.368V350.755H995.454V330.317Z" fill="#F2F2F2"/>
<path id="building-window_61" d="M974.656 339.125V335.093H969.487V339.125H974.226H974.656Z" fill="#3F3D56"/>
<path id="building-window_62" d="M974.226 342.35H969.487V346.38H974.656V342.35H974.226Z" fill="#3F3D56"/>
<path id="building-window_63" d="M983.273 335.093H978.103V339.124H983.273V335.093Z" fill="#3F3D56"/>
<path id="building-window_64" d="M983.273 342.349H978.103V346.38H983.273V342.349Z" fill="#3F3D56"/>
<path id="Vector_36" d="M1070.19 386.487L1064.78 378.044L1115.31 300.783H1245.24V312.603L1198.32 396.619L1144.18 406.751L1070.19 386.487Z" fill="#3F3D56"/>
<path id="Vector_37" d="M1267.61 311.619V298.145H1250.59V306.477L1245.24 300.783L1201.93 378.044L1194.71 384.799L1185.69 418.571L1201.93 455.721H1284.94V379.732L1267.61 311.619Z" fill="#CCCCCC"/>
<path id="Vector_38" d="M1201.93 378.044H1064.78V455.722H1201.93V378.044Z" fill="#F2F2F2"/>
<path id="building-window_65" d="M1182.98 402.53H1154.11V426.171H1182.98V402.53Z" fill="#3F3D56"/>
<path id="Vector_39" d="M1142.38 401.685H1117.11V455.722H1142.38V401.685Z" fill="#CCCCCC"/>
<path id="building-window_66" d="M1088.24 410.129V401.684H1077.41V410.129H1087.34H1088.24Z" fill="#3F3D56"/>
<path id="building-window_67" d="M1087.34 416.883H1077.41V425.326H1088.24V416.883H1087.34Z" fill="#3F3D56"/>
<path id="building-window_68" d="M1106.29 401.685H1095.46V410.128H1106.29V401.685Z" fill="#3F3D56"/>
<path id="building-window_69" d="M1106.29 416.883H1095.46V425.326H1106.29V416.883Z" fill="#3F3D56"/>
<path id="building-window_70" d="M1240.73 410.973V402.529H1229.9V410.973H1239.83H1240.73Z" fill="#3F3D56"/>
<path id="building-window_71" d="M1239.83 417.727H1229.9V426.171H1240.73V417.727H1239.83Z" fill="#3F3D56"/>
<path id="building-window_72" d="M1258.77 402.53H1247.95V410.973H1258.77V402.53Z" fill="#3F3D56"/>
<path id="building-window_73" d="M1258.77 417.727H1247.95V426.171H1258.77V417.727Z" fill="#3F3D56"/>
<path id="Vector_40" d="M1120.44 333.764L1119.01 331.541L1132.31 311.212H1166.49V314.323L1154.15 336.429L1139.9 339.094L1120.44 333.764Z" fill="#3F3D56"/>
<path id="Vector_41" d="M1166.49 311.212L1155.1 331.541L1153.2 333.318L1150.82 342.205L1155.1 351.98H1176.94V331.986L1166.49 311.212Z" fill="#CCCCCC"/>
<path id="Vector_42" d="M1155.1 331.541H1119.01V351.979H1155.1V331.541Z" fill="#F2F2F2"/>
<path id="building-window_74" d="M1134.3 340.348V336.317H1129.13V340.348H1133.87H1134.3Z" fill="#3F3D56"/>
<path id="building-window_75" d="M1133.87 343.574H1129.13V347.605H1134.3V343.574H1133.87Z" fill="#3F3D56"/>
<path id="building-window_76" d="M1142.92 336.317H1137.75V340.348H1142.92V336.317Z" fill="#3F3D56"/>
<path id="building-window_77" d="M1142.92 343.574H1137.75V347.605H1142.92V343.574Z" fill="#3F3D56"/>
<path id="Vector_43" d="M1440 454.882H1.30859V457.331H1440V454.882Z" fill="#3F3D56"/>
<path id="Vector_44" d="M1438.69 683.859H0V686.308H1438.69V683.859Z" fill="#3F3D56"/>
<g id="right-tree">
<path id="right-tree-log" d="M1345.9 293.428H1341.53V454.882H1345.9V293.428Z" fill="#3F3D56"/>
<path id="right-tree-leaf" d="M1388.53 340.416C1388.53 342.192 1388.52 343.96 1388.47 345.719C1386.91 409.276 1305.48 409.627 1303.28 346.086C1303.22 344.328 1303.19 342.56 1303.18 340.784C1302.83 269.74 1345.22 211.963 1345.22 211.963C1345.22 211.963 1388.18 269.372 1388.53 340.416Z" fill="#A38D8D"/>
</g>
<path id="Vector_45" d="M250.541 712.893C250.541 712.893 250.541 759.328 261.93 771.508C261.93 771.508 264.371 777.598 265.184 779.881C265.639 781.181 266.183 782.453 266.812 783.687V786.732C266.812 786.732 288.776 784.449 291.217 779.12L287.149 774.553C287.149 774.553 286.336 773.791 287.149 771.508C287.288 771.259 287.354 770.98 287.338 770.7C287.322 770.419 287.226 770.148 287.059 769.914C286.893 769.681 286.662 769.493 286.392 769.372C286.121 769.251 285.821 769.199 285.522 769.224L279.828 757.045L280.641 706.804L276.574 637.532L241.593 636.009L250.541 712.893Z" fill="#2F2E41"/>
<path id="Vector_46" d="M268.438 782.165C268.438 782.165 262.744 798.151 268.438 798.912C274.133 799.673 323.757 800.434 322.943 794.345C322.13 788.255 305.86 789.016 305.86 789.016L288.776 779.12L268.438 782.165Z" fill="#2F2E41"/>
<g id="Vector_47">
<path d="M217.697 702L167.697 750.5C167.697 750.5 176.129 765.261 180.197 764.5C184.264 763.739 248.697 711 248.697 711L232.697 705.024L217.697 702Z" fill="#2F2E41"/>
<path d="M221.117 626.5C220.418 633.659 217.244 655.721 221.117 661.93C227.625 672.587 217.697 702 217.697 702C217.697 702 244.629 711.761 248.697 711L273.5 626.5H221.117Z" fill="#2F2E41"/>
</g>
<path id="Vector_48" d="M168.358 749.699C168.358 749.699 150.88 753.756 153.242 758.664C155.603 763.573 181.482 803.201 186.543 799.297C191.604 795.394 182.207 782.943 182.207 782.943L181.994 764.143L168.358 749.699Z" fill="#2F2E41"/>
<path id="man-head" d="M249.728 513.452C260.061 513.452 268.438 505.613 268.438 495.944C268.438 486.274 260.061 478.436 249.728 478.436C239.394 478.436 231.017 486.274 231.017 495.944C231.017 505.613 239.394 513.452 249.728 513.452Z" fill="#FFB8B8"/>
<path id="man-neck" d="M235.006 502.121L235.834 524.651L251.577 530.472C251.577 530.472 253.121 507.403 255.301 506.124C257.48 504.845 235.006 502.121 235.006 502.121Z" fill="#FFB8B8"/>
<path id="man-shirt" d="M255.422 533.244C255.422 533.244 233.458 512.691 227.763 513.452C222.069 514.213 222.069 516.497 222.069 518.019C222.069 519.542 223.696 520.303 222.069 521.064C220.442 521.826 218.815 521.064 218.815 523.348C218.815 525.632 204.172 548.468 209.053 573.589C213.934 598.709 219.628 610.889 217.188 624.591C214.747 638.293 216.374 641.338 216.374 641.338C216.374 641.338 277.387 645.905 278.2 640.577C279.014 635.248 275.76 638.293 279.827 634.487C283.895 630.681 282.268 630.681 282.268 628.397C282.268 626.114 264.371 533.244 255.422 533.244Z" fill="#575A89"/>
<path id="man-below-hand" d="M244.033 636.771C244.033 636.771 253.795 658.846 261.117 653.518C268.438 648.189 257.863 629.92 257.863 629.92L244.033 636.771Z" fill="#FFB8B8"/>
<path id="man-hand" d="M220.442 534.766C220.442 534.766 201.329 536.814 208.445 569.665C215.561 602.515 243.22 640.577 243.22 640.577L261.93 632.203L237.525 587.291L243.22 559.126C243.22 559.126 246.474 532.483 220.442 534.766Z" fill="#575A89" stroke="black" stroke-opacity="0.14"/>
<path id="man-hair" d="M241.259 506.464C242.847 505.863 244.492 505.404 246.173 505.095C249.084 504.173 251.547 502.306 253.113 499.832C254.68 497.358 255.248 494.441 254.714 491.609C254.482 490.888 254.378 490.138 254.406 489.386C254.636 488.575 255.118 487.846 255.791 487.291C256.464 486.736 257.298 486.38 258.187 486.269C259.964 486.075 261.724 485.761 263.453 485.331C264.717 484.798 265.812 483.966 266.628 482.916C267.444 481.867 267.953 480.636 268.106 479.346C268.372 476.751 267.754 474.143 266.341 471.896L265.711 473.592C264.751 472.831 264.038 471.833 263.653 470.711C262.937 470.824 262.264 471.107 261.699 471.532C261.133 471.958 260.694 472.512 260.423 473.142C259.412 473.7 259.266 471.409 258.149 471.071C257.658 471.014 257.162 471.128 256.755 471.393C254.505 472.375 251.891 471.535 249.477 470.991C245.297 470.053 240.94 470.048 236.758 470.977C233.937 471.495 231.331 472.75 229.241 474.596C227.686 476.248 226.491 478.169 225.724 480.25C223.384 485.22 222.409 490.658 222.887 496.07C223.473 500.459 225.436 504.587 228.526 507.933C230.136 509.669 235.39 515.725 238.27 514.693C241.889 513.395 236.995 508.574 241.259 506.464Z" fill="#2F2E41"/>
<path id="Vector_49" d="M255.307 537.423C255.946 537.423 256.464 536.939 256.464 536.341C256.464 535.742 255.946 535.258 255.307 535.258C254.668 535.258 254.15 535.742 254.15 536.341C254.15 536.939 254.668 537.423 255.307 537.423Z" fill="#D0CDE1"/>
<path id="cowler-lays" d="M265.144 566.662C265.02 566.662 264.9 566.625 264.8 566.556C264.701 566.487 264.628 566.391 264.591 566.28L254.754 536.5C254.709 536.363 254.724 536.215 254.795 536.088C254.867 535.961 254.99 535.866 255.136 535.823C255.283 535.781 255.441 535.795 255.577 535.862C255.713 535.929 255.814 536.043 255.86 536.181L265.697 565.961C265.723 566.042 265.729 566.127 265.714 566.211C265.699 566.294 265.663 566.373 265.609 566.441C265.555 566.51 265.485 566.565 265.404 566.603C265.324 566.642 265.234 566.662 265.144 566.662Z" fill="#D0CDE1"/>
<path id="Vector_50" d="M1304.54 524.369C1315.33 524.369 1324.08 516.183 1324.08 506.085C1324.08 495.988 1315.33 487.802 1304.54 487.802C1293.75 487.802 1285 495.988 1285 506.085C1285 516.183 1293.75 524.369 1304.54 524.369Z" fill="#2F2E41"/>
<path id="Vector_51" d="M1276.77 616.838L1273.8 622.382C1273.8 622.382 1264.32 636.797 1270.84 638.46C1277.36 640.123 1279.43 627.649 1279.43 627.649L1280.62 620.996L1276.77 616.838Z" fill="#E0D2D4"/>
<path id="Vector_52" d="M1288.61 588.565L1281.21 606.859L1273.8 619.61L1282.99 625.154L1290.39 612.957L1299.28 593.831L1288.61 588.565Z" fill="#6049E1"/>
<path id="Vector_53" d="M1309.65 674.218L1324.46 688.91L1350.53 730.212L1361.78 726.886L1348.45 702.215C1348.45 702.215 1340.75 683.366 1336.9 680.871C1333.05 678.376 1326.53 662.022 1326.53 662.022L1319.42 656.755L1309.65 674.218Z" fill="#E0D2D4"/>
<path id="Vector_54" d="M1279.14 682.257L1277.95 686.969C1277.95 686.969 1274.1 701.661 1268.17 708.314L1253.96 731.321L1243.29 727.995L1264.32 681.425L1279.14 682.257Z" fill="#E0D2D4"/>
<path id="Vector_55" d="M1301.21 527.442C1310.04 527.442 1317.2 520.74 1317.2 512.473C1317.2 504.206 1310.04 497.505 1301.21 497.505C1292.37 497.505 1285.21 504.206 1285.21 512.473C1285.21 520.74 1292.37 527.442 1301.21 527.442Z" fill="#E0D2D4"/>
<path id="Vector_56" d="M1313.79 519.819L1315.87 535.897L1302.54 541.995C1302.54 541.995 1302.54 528.135 1298.98 524.531L1313.79 519.819Z" fill="#E0D2D4"/>
<path id="Vector_57" d="M1355.56 623.491L1357.05 628.203C1357.05 628.203 1366.82 646.221 1358.53 646.221C1350.23 646.221 1348.75 629.589 1348.75 629.589L1347.86 625.431L1355.56 623.491Z" fill="#E0D2D4"/>
<path id="Vector_58" d="M1287.43 604.642L1289.5 618.224L1264.32 667.843L1262.84 682.257L1309.94 687.801L1320.31 660.913L1336.9 680.871L1327.42 660.359C1327.42 660.359 1324.46 646.499 1325.35 642.895C1326.24 639.291 1324.76 621.274 1322.09 616.838C1319.42 612.403 1287.43 604.642 1287.43 604.642Z" fill="#2F2E41"/>
<path id="Vector_59" d="M1348.75 730.212L1362.97 725.777L1367.41 732.43C1367.41 732.43 1376 734.647 1375.71 740.468C1375.75 745.764 1376.24 751.048 1377.19 756.269L1370.97 756.823L1368.6 745.458L1356.45 759.041C1356.45 759.041 1334.83 760.15 1333.94 756.823C1333.05 753.497 1349.34 749.893 1349.34 749.893L1352.01 737.974L1348.75 730.212Z" fill="#2F2E41"/>
<path id="Vector_60" d="M1242.4 726.331L1255.44 730.212V732.984C1255.44 732.984 1259.29 738.528 1258.7 743.241C1258.1 747.953 1255.44 759.318 1255.44 759.318H1248.62L1248.92 748.785L1235.29 759.318C1235.29 759.318 1211 757.655 1211 754.051C1211 750.448 1229.66 747.953 1229.66 747.953L1242.4 726.331Z" fill="#2F2E41"/>
<path id="Vector_61" d="M1301.65 538.668C1301.65 538.668 1313.79 527.303 1319.42 530.075V535.065C1319.42 535.065 1327.72 538.668 1328.01 544.212C1328.31 549.756 1336.9 600.206 1336.9 600.206L1357.04 665.902C1357.04 665.902 1350.82 675.05 1328.01 664.794L1313.79 619.61C1313.79 619.61 1328.9 670.615 1321.5 669.783C1314.09 668.952 1285.06 605.75 1285.06 605.75L1287.13 575.813C1287.13 575.813 1282.39 562.785 1291.87 553.914L1301.65 538.668Z" fill="#6049E1"/>
<path id="Vector_62" d="M1322.39 540.332C1322.39 540.332 1327.42 541.995 1330.98 549.202C1334.53 556.409 1352.31 607.136 1352.31 607.136L1357.05 625.154L1343.71 628.203L1337.2 609.631L1312.91 567.497C1312.91 567.497 1309.06 545.321 1322.39 540.332Z" fill="#6049E1" stroke="black" stroke-opacity="0.14"/>
<path id="Vector_63" d="M1321.22 500.532C1321.15 498.811 1320.63 497.132 1319.71 495.642C1318.79 494.153 1317.49 492.898 1315.93 491.988C1317.55 488.932 1319.01 485.445 1317.93 482.182C1317.5 480.916 1316.71 479.782 1315.65 478.895C1314.59 478.008 1313.3 477.402 1311.91 477.138C1310.36 476.937 1308.78 476.957 1307.23 477.194L1299.93 477.969C1297.54 478.056 1295.2 478.645 1293.09 479.693C1292.04 480.314 1291.16 481.156 1290.52 482.152C1289.89 483.148 1289.51 484.27 1289.42 485.428C1289.33 486.586 1289.53 487.747 1290.01 488.818C1290.49 489.889 1291.23 490.84 1292.17 491.595C1287.07 495.418 1283.65 498.319 1281.33 504.039C1285.23 501.067 1290.09 499.436 1295.12 499.419C1298.54 499.246 1301.89 500.327 1304.47 502.432C1307.05 504.536 1308.65 507.5 1308.93 510.691C1308.9 512.292 1309.05 513.892 1309.38 515.464C1309.57 516.247 1310.04 516.946 1310.71 517.445C1311.38 517.945 1312.21 518.214 1313.07 518.209C1312.83 518.24 1311.39 514.174 1312.41 512.297L1312.42 512.267C1312.65 511.879 1313.02 511.582 1313.46 511.434C1313.86 511.292 1314.28 511.23 1314.7 511.253C1315.13 511.276 1315.54 511.383 1315.91 511.567C1316.29 511.751 1316.62 512.008 1316.88 512.32C1317.14 512.632 1317.33 512.993 1317.43 513.378C1318 515.414 1318.9 518.013 1319.7 517.323C1320.73 516.42 1320.3 508.455 1320.58 507.221C1321.14 505.032 1321.35 502.779 1321.22 500.532Z" fill="#2F2E41"/>
<path id="Vector_64" d="M1315.85 491.933C1315.85 491.933 1299.79 492.913 1292.11 491.607L1315.85 491.933Z" fill="#D0CDE1"/>
<path id="Vector_65" d="M1314.94 489.923C1316.56 486.868 1318.02 483.38 1316.94 480.117C1316.44 478.646 1315.46 477.359 1314.14 476.434C1315.15 476.868 1316.05 477.493 1316.79 478.27C1317.53 479.048 1318.08 479.96 1318.42 480.949C1319.5 484.212 1318.04 487.699 1316.42 490.755C1315.13 490.575 1318.17 491.538 1314.94 489.923Z" fill="#2F2E41"/>
<path id="flower-1" d="M217.511 785.056C217.511 785.056 210.267 799.81 204.386 803.947C198.431 799.799 191.046 785.056 191.046 785.056C191.046 785.056 183.803 799.81 177.922 803.947C171.967 799.799 164.582 785.056 164.582 785.056C164.582 785.056 144.01 804.735 144.067 814.055C144.068 814.287 144.082 814.519 144.109 814.75C144.811 820.852 166.08 822.407 177.764 819.531C186.473 821.391 195.519 821.391 204.228 819.531C215.862 822.453 237.564 820.779 238.198 814.607C238.222 814.376 238.233 814.144 238.232 813.911C238.175 804.592 217.511 785.056 217.511 785.056Z" fill="#6C63FF"/>
<path id="flower-2" d="M649.689 785.056C649.689 785.056 642.446 799.81 636.565 803.947C630.61 799.799 623.225 785.056 623.225 785.056C623.225 785.056 615.981 799.81 610.1 803.947C604.145 799.799 596.76 785.056 596.76 785.056C596.76 785.056 576.188 804.735 576.245 814.055C576.247 814.287 576.261 814.519 576.287 814.75C576.99 820.852 598.258 822.407 609.942 819.531C618.652 821.391 627.697 821.391 636.407 819.531C648.041 822.453 669.742 820.779 670.376 814.607C670.4 814.376 670.412 814.144 670.41 813.911C670.353 804.592 649.689 785.056 649.689 785.056Z" fill="#E6E6E6"/>
<path id="flower-3" d="M1079.07 785.056C1079.07 785.056 1071.83 799.81 1065.95 803.947C1059.99 799.799 1052.61 785.056 1052.61 785.056C1052.61 785.056 1045.36 799.81 1039.48 803.947C1033.53 799.799 1026.14 785.056 1026.14 785.056C1026.14 785.056 1005.57 804.735 1005.63 814.055C1005.63 814.287 1005.64 814.519 1005.67 814.75C1006.37 820.852 1027.64 822.407 1039.32 819.531C1048.03 821.391 1057.08 821.391 1065.79 819.531C1077.42 822.453 1099.12 820.779 1099.76 814.607C1099.78 814.376 1099.79 814.144 1099.79 813.911C1099.73 804.592 1079.07 785.056 1079.07 785.056Z" fill="#6C63FF"/>
<path id="cloud-1" d="M451.449 63.5685L451.167 63.7228C448.125 65.3973 444.716 66.2808 441.25 66.2931C437.783 66.3053 434.368 65.446 431.314 63.793C431.138 63.6974 430.963 63.6031 430.79 63.51C427.736 61.8695 424.327 61.0172 420.866 61.0292C417.405 61.0412 414.001 61.9173 410.959 63.5789L410.697 63.7229C407.655 65.3974 404.246 66.2809 400.779 66.2931C397.312 66.3054 393.897 65.446 390.844 63.7931C390.661 63.6939 390.48 63.596 390.299 63.4994C387.282 61.8664 383.911 61.0088 380.485 61.0027C377.06 60.9965 373.686 61.8421 370.663 63.4643C361.429 68.47 348.945 77.0286 349 86.6941C349.002 87.0764 349.024 87.4583 349.065 87.8383C350.138 97.876 382.663 100.434 400.53 95.7031C413.849 98.7622 427.682 98.7622 441.001 95.7031C458.792 100.509 491.978 97.7558 492.948 87.603C492.985 87.2226 493.002 86.8406 493 86.4584C492.945 76.7877 480.351 68.3188 471.059 63.3835C468.028 61.7871 464.652 60.9687 461.231 61.0009C457.81 61.0332 454.45 61.9151 451.449 63.5685Z" fill="#E6E6E6"/>
<path id="cloud-2" d="M791.977 129.608L791.787 129.704C789.739 130.752 787.444 131.305 785.11 131.313C782.776 131.32 780.477 130.783 778.421 129.748C778.302 129.688 778.185 129.629 778.068 129.571C776.012 128.544 773.716 128.011 771.386 128.018C769.056 128.026 766.764 128.574 764.716 129.614L764.539 129.704C762.491 130.752 760.196 131.305 757.862 131.313C755.528 131.32 753.229 130.783 751.173 129.748C751.05 129.686 750.928 129.625 750.806 129.564C748.775 128.542 746.505 128.006 744.199 128.002C741.892 127.998 739.62 128.527 737.585 129.542C731.368 132.675 722.963 138.032 723 144.082C723.002 144.321 723.016 144.56 723.044 144.798C723.766 151.08 745.665 152.681 757.695 149.72C766.662 151.635 775.975 151.635 784.943 149.72C796.921 152.728 819.265 151.005 819.918 144.65C819.943 144.412 819.954 144.173 819.953 143.934C819.916 137.881 811.437 132.581 805.18 129.492C803.139 128.493 800.866 127.98 798.563 128.001C796.26 128.021 793.998 128.573 791.977 129.608Z" fill="#E6E6E6"/>
<path id="cloud-3" d="M1292.46 43.7767L1291.99 43.9436C1286.9 45.7538 1281.19 46.709 1275.39 46.7222C1269.59 46.7354 1263.87 45.8064 1258.76 44.0194C1258.47 43.9161 1258.17 43.8142 1257.88 43.7135C1252.77 41.94 1247.07 41.0185 1241.28 41.0315C1235.48 41.0445 1229.79 41.9916 1224.7 43.7879L1224.26 43.9436C1219.17 45.7539 1213.46 46.709 1207.66 46.7223C1201.86 46.7355 1196.14 45.8065 1191.03 44.0195C1190.72 43.9123 1190.42 43.8064 1190.12 43.702C1185.07 41.9367 1179.43 41.0095 1173.69 41.0029C1167.96 40.9963 1162.31 41.9104 1157.25 43.6641C1141.8 49.0757 1120.91 58.3282 1121 68.7774C1121 69.1906 1121.04 69.6035 1121.11 70.0143C1122.91 80.8659 1177.34 83.6309 1207.24 78.5169C1229.53 81.824 1252.68 81.824 1274.97 78.5169C1304.75 83.7128 1360.29 80.736 1361.91 69.76C1361.97 69.3488 1362 68.9358 1362 68.5226C1361.91 58.0677 1340.83 48.9122 1325.28 43.5768C1320.21 41.8509 1314.56 40.9661 1308.83 41.001C1303.11 41.0359 1297.48 41.9893 1292.46 43.7767Z" fill="#E6E6E6"/>

<g id="yellow-car">
<g id="yellow-car-body">
<path id="Vector_73" d="M860 526.01L865.77 527.13L1085.06 527.228L1087.04 523.374C1090.48 516.763 1091.66 509.48 1090.45 502.339C1089.5 497.017 1087.13 491.728 1081.76 489.43L1072.03 435.059L950.703 434.877L903.763 466.636C903.763 466.636 881.621 466.302 869.592 478.864C865.253 483.535 862.69 489.194 862.239 495.104L861.764 501.639L860 526.01Z" fill="#79CB5C"/>
<path id="Vector_74" d="M922.414 453.959L987.918 453.984H995.914L1009.42 453.991V453.165L1009.43 443.206L1009.43 432.024H1000.45L992.457 432.016L978.293 432.008H970.296L953.943 432L922.414 453.959Z" fill="white"/>
<path id="Vector_75" d="M1062.2 519.929L1090.17 519.942L1090.17 516.218L1062.2 516.205L1062.2 519.929Z" fill="#3F3D56"/>
<path id="Vector_76" d="M1020.07 453.999L1054.69 454.015L1054.7 448.317V438.358L1054.71 432.049H1049.64L1041.65 432.041L1020.08 432.033L1020.07 453.999Z" fill="white"/>
<path id="Vector_77" d="M1004.96 477.452L1009.4 477.454L1009.41 470.379L1004.97 470.377L1004.96 477.452Z" fill="#3F3D56"/>
<path id="Vector_78" d="M940.16 464.018L940.163 460.294L931.729 460.29L931.726 464.014L940.16 464.018Z" fill="#3F3D56"/>
<path id="Vector_79" d="M937.055 461.931L936.566 461.931C934.106 461.93 931.746 461.109 930.007 459.649C928.268 458.188 927.292 456.208 927.293 454.144C927.295 452.08 928.273 450.101 930.014 448.642C931.755 447.183 934.115 446.365 936.576 446.366L937.064 446.366L937.055 461.931Z" fill="#3F3D56"/>
<path id="Vector_80" d="M860.466 500.775C863.823 501.081 867.201 500.384 870.005 498.806C872.81 497.228 874.86 494.87 875.796 492.148C876.731 489.426 876.491 486.515 875.119 483.927C873.747 481.339 871.33 479.24 868.293 478C863.954 482.671 861.392 488.33 860.94 494.24L860.466 500.775Z" fill="white"/>
<path id="Vector_81" d="M992.457 432.016L1009.42 453.165L1009.43 443.206L1000.45 432.024L992.457 432.016Z" fill="#F2F2F2"/>
<path id="Vector_82" d="M1041.65 432.041L1054.7 448.317V438.358L1049.64 432.049L1041.65 432.041Z" fill="#F2F2F2"/>
<path id="Vector_83" d="M970.296 432.007L987.918 453.983H995.914L978.293 432.007H970.296Z" fill="#F2F2F2"/>
</g>
<g id="wheel_3">
<path id="wheel-tire_3" d="M1027.5 549C1042.14 549 1054 537.583 1054 523.5C1054 509.417 1042.14 498 1027.5 498C1012.86 498 1001 509.417 1001 523.5C1001 537.583 1012.86 549 1027.5 549Z" fill="#3F3D56"/>
<path id="wheel-rim_3" d="M1027.5 536.921C1035.2 536.921 1041.45 530.912 1041.45 523.5C1041.45 516.088 1035.2 510.079 1027.5 510.079C1019.8 510.079 1013.55 516.088 1013.55 523.5C1013.55 530.912 1019.8 536.921 1027.5 536.921Z" fill="#CCCCCC"/>
</g>
<g id="wheel_4">
<path id="wheel-tire_4" d="M904.5 549C919.136 549 931 537.583 931 523.5C931 509.417 919.136 498 904.5 498C889.864 498 878 509.417 878 523.5C878 537.583 889.864 549 904.5 549Z" fill="#3F3D56"/>
<path id="wheel-rim_4" d="M904.947 537.842C912.65 537.842 918.895 531.833 918.895 524.421C918.895 517.009 912.65 511 904.947 511C897.244 511 891 517.009 891 524.421C891 531.833 897.244 537.842 904.947 537.842Z" fill="#CCCCCC"/>
</g>
</g>
<g id="blue-car">
<g id="blue-car-body">
<path id="Vector_66" d="M462.255 632.826H416.215V639.665H462.255V632.826Z" fill="#3F3D56"/>
<path id="Vector_67" d="M795.132 634.358L785.633 636.414L424.619 636.595L421.373 629.517C415.711 617.377 413.768 604.003 415.76 590.889C417.315 581.114 421.211 571.401 430.06 567.183L446.081 467.334L645.812 467L723.087 525.322C723.087 525.322 759.538 524.709 779.341 547.778C785.609 555.086 790.211 564.766 791.446 577.601L792.228 589.602L795.132 634.358Z" fill="#6C63FF"/>
<path id="Vector_68" d="M692.385 518.504L584.547 518.548H571.383L549.156 518.563V517.046L549.14 498.758L549.125 478.223H563.911L577.075 478.209L600.394 478.194H613.557L640.478 478.179L692.385 518.504Z" fill="white"/>
<path id="Vector_69" d="M531.61 518.578L474.618 518.607L474.603 508.142V489.856L474.587 478.267H482.932L496.096 478.252L531.594 478.238L531.61 518.578Z" fill="white"/>
<path id="Vector_70" d="M556.482 548.658H549.174V561.651H556.482V548.658Z" fill="#3F3D56"/>
<path id="Vector_71" d="M677.053 536.97L677.049 530.132L663.164 530.139L663.168 536.977L677.053 536.97Z" fill="#3F3D56"/>
<path id="Vector_72" d="M668.273 504.557H669.077C673.128 504.557 677.013 506.063 679.877 508.743C682.741 511.423 684.351 515.058 684.351 518.849C684.351 522.639 682.741 526.275 679.877 528.955C677.013 531.635 673.128 533.141 669.077 533.141H668.273V504.557Z" fill="#3F3D56"/>
<path id="car-head-light" d="M792.228 589.602C786.701 590.165 781.14 588.884 776.523 585.986C771.907 583.088 768.531 578.759 766.991 573.761C765.451 568.762 765.845 563.416 768.105 558.663C770.364 553.91 774.343 550.055 779.342 547.779C785.609 555.086 790.211 564.766 791.446 577.601L792.228 589.602Z" fill="white"/>
</g>
<path id="blu-car-glass" fill-rule="evenodd" clip-rule="evenodd" d="M584.547 518.548L613.557 478.194H600.394L571.383 518.548H584.547ZM577.075 478.208L549.156 517.046L549.14 498.758L563.911 478.223L577.075 478.208ZM496.096 478.252L474.603 508.142V489.856L482.932 478.267L496.096 478.252Z" fill="#F2F2F2"/>
<g id="wheel">
<path id="wheel-tire" d="M698.769 671.256C723.389 671.256 743.347 652.58 743.347 629.541C743.347 606.503 723.389 587.827 698.769 587.827C674.149 587.827 654.19 606.503 654.19 629.541C654.19 652.58 674.149 671.256 698.769 671.256Z" fill="#3F3D56"/>
<path id="wheel-rim" d="M698.653 651.496C711.611 651.496 722.115 641.667 722.115 629.541C722.115 617.416 711.611 607.587 698.653 607.587C685.695 607.587 675.19 617.416 675.19 629.541C675.19 641.667 685.695 651.496 698.653 651.496Z" fill="#CCCCCC"/>
</g>
<g id="wheel_2">
<path id="wheel-tire_2" d="M506.769 674.256C531.389 674.256 551.347 655.58 551.347 632.541C551.347 609.503 531.389 590.827 506.769 590.827C482.149 590.827 462.19 609.503 462.19 632.541C462.19 655.58 482.149 674.256 506.769 674.256Z" fill="#3F3D56"/>
<path id="wheel-rim_2" d="M506.653 654.496C519.611 654.496 530.115 644.667 530.115 632.541C530.115 620.416 519.611 610.587 506.653 610.587C493.695 610.587 483.19 620.416 483.19 632.541C483.19 644.667 493.695 654.496 506.653 654.496Z" fill="#CCCCCC"/>
</g>
</g>

</g>
</g>
<defs>
<clipPath id="clip0">
<rect width="1440" height="821" fill="white"/>
</clipPath>
</defs>
</svg>

